<?xml version="1.0" encoding="utf-8"?>
<!-- Generator: Adobe Illustrator 21.1.0, SVG Export Plug-In . SVG Version: 6.00 Build 0)  -->
<svg version="1.1" xmlns="http://www.w3.org/2000/svg" xmlns:xlink="http://www.w3.org/1999/xlink" x="0px" y="0px"
	 viewBox="0 0 70 70" style="enable-background:new 0 0 70 70;" xml:space="preserve">
<style type="text/css">
	.st0{fill:#FFFFFF;}
</style>
<g id="Layer_1">
	<path d="M35.0441399,24.8315353c-5.5797882,0-10.119669,4.5427208-10.119669,10.126297
		c0,5.5807304,4.5398808,10.1201401,10.119669,10.1201401s10.1196632-4.5394096,10.1196632-10.1201401
		C45.1638031,29.3742561,40.6239243,24.8315353,35.0441399,24.8315353z M35.0446129,43.6857491
		c-4.800272-0.0066299-8.7159615-3.9217262-8.7283916-8.7291031c0.0005913-4.815897,3.9158077-8.7333603,8.7274418-8.7333603
		c4.810276,0.006155,8.7293396,3.9247437,8.7354965,8.7345467C43.7791595,39.7704735,39.860569,43.6857491,35.0446129,43.6857491z"
		/>
	<ellipse cx="35.0511246" cy="34.9562912" rx="2.0080702" ry="2.0047548"/>
	<g>
		<path d="M19.247076,51.5528183c0.0007687,0.0007706,0.0015392,0.0015984,0.0023079,0.0023689l0.0034332-0.0037308
			l3.3214474-3.5930862c-0.0008869-0.0008278-0.0017166-0.0018349-0.0025444-0.0026627l1.2536526-1.3563538l0,0l2.4476967-2.6458168
			c0.0000591,0.000061,0.0001774,0.0001793,0.0002365,0.0002365c0.0135555,0.0135574,0.0270519,0.0270538,0.0406075,0.0405464
			c-0.013792-0.0133171-0.025631-0.0284691-0.0393639-0.0418472l0.0053272-0.0057411
			c0.0136147,0.0136147,0.0272293,0.0272293,0.040844,0.0407829c-2.366188-2.2845612-3.8416386-5.4802246-3.8416386-9.0294456
			c0-3.4693127,1.4045353-6.6107559,3.6769028-8.8857269c2.2741432-2.2731953,5.4155254-3.6794472,8.8882122-3.6794472
			c2.2914276,0,4.4331551,0.6187458,6.282589,1.6930428l0.0104179-0.0189419l1.0051003-1.8338051l1.6127167-2.9424343
			c0.0010071,0.0005932,0.0021324,0.0010662,0.0031357,0.0016575l2.3525162-4.2971878
			c-0.0003548-0.0001774-0.0006523-0.0003557-0.0010071-0.0005331l0.3027725-0.5524502
			c0.0014229,0.0007696,0.0028419,0.0014801,0.0042648,0.0022497l2.366127-4.324358
			c-0.0003548-0.0002365-0.0007706-0.0003557-0.0011253-0.0005922l0.3027763-0.5523911
			c0.0014191,0.0007696,0.0028992,0.0014801,0.0043182,0.0022497l2.304985-4.21562
			C46.8342361,2.6748745,41.367569,1.1109906,35.5405922,1.0158081h-0.5507927
			C16.3257141,1.0498441,1.2039865,16.0559082,1.0000068,34.6860733v0.3263321
			C1.0204284,44.7558403,5.1271925,53.5269699,11.6953278,59.72118l3.3589172-3.6308479
			c-0.0001783-0.0001793-0.0003557-0.0003548-0.0005331-0.0005341L19.247076,51.5528183z"/>
		<path d="M58.6922874,10.6572533l-3.2704811,3.5152464c0.0001755,0.0001774,0.0002975,0.0003548,0.000473,0.0005331
			l-4.2008209,4.5227737c-0.0005913-0.0005932-0.0010643-0.0011253-0.0016594-0.0017166l-3.3384361,3.5900078
			c0.0012436,0.0012417,0.0023079,0.0026627,0.0035515,0.0039654l-0.4254189,0.4580956l-0.010006,0.0107727
			c-0.0011253-0.0011826-0.0021896-0.0024853-0.003315-0.0036697l-3.290844,3.5424156
			c2.1417885,2.2573929,3.4676552,5.3034725,3.4676552,8.6623917c0,3.4694901-1.406311,6.6110497-3.6797447,8.8860207
			c-2.274971,2.2730179-5.4162369,3.6790924-8.8854294,3.6790924c-2.107811,0-4.0932083-0.5235634-5.8405914-1.4414711
			L29.21278,46.0895844c-0.0007687-0.0004158-0.0015984-0.0006523-0.002367-0.0010681l-2.3616314,4.2075119l-0.0045567,0.008049
			c0.0005913,0.0002975,0.0011234,0.0005951,0.0017166,0.0008888l-0.3056736,0.5441055
			c-0.0006523-0.0003548-0.0013618-0.0006523-0.0020123-0.0010071l-2.4001656,4.2699585
			c0.0010052,0.0005341,0.0020123,0.0010071,0.0030193,0.0015411l-0.3101139,0.5520325
			c-0.0018349-0.0010033-0.0038471-0.0018349-0.005682-0.0028381l-2.4137211,4.2971878
			c0.0017166,0.000946,0.0036106,0.0017738,0.0053272,0.0027237l-0.3041344,0.541378
			c-0.0001183-0.0000572-0.0002365-0.0001183-0.0003548-0.0001755l-2.4205875,4.3107986
			c4.841114,2.6585464,10.3961582,4.1747818,16.3047619,4.1815872c18.7729416,0,34.0034103-15.2237167,34.0034103-33.9965973
			C68.9864578,25.452589,65.036026,16.8310432,58.6922874,10.6572533z"/>
	</g>
</g>
<g id="Layer_2">
</g>
</svg>
